<svg xmlns="http://www.w3.org/2000/svg" width="500" height="500" 
style="width:40px;height:40px;transform:translate3d(0,0,0);content-visibility:visible" viewBox="0 0 500 500">
<defs><clipPath id="a"><path d="M0 0h500v500H0z"/></clipPath><clipPath id="c">
<path d="M0 0h500v500H0z"/></clipPath>
<clipPath id="b"><path d="M0 0h500v500H0z"/></clipPath></defs>
<g clip-path="url(#a)"><g clip-path="url(#b)" style="display:block">
<g fill="none" class="primary design" style="display:none"><path/><path/></g>
<g fill="none" class="primary design" style="display:none"><path/><path/></g><path fill="#402FE8" d="M205.127-33.89c-7.276-41.978-27.423-80.326-58.262-110.9-30.823-30.56-69.34-50.392-111.384-57.35-65.068-10.77-129.726 8.496-177.397 52.857-47.667 44.359-71.552 107.175-65.531 172.341 4.298 46.503 24.892 90.938 57.991 125.117 33.133 34.214 76.892 56.18 123.218 61.851a218.57 218.57 0 0 0 26.565 1.633c40.007 0 78.403-11.24 112.313-33.07 7.268-4.679 9.366-14.364 4.687-21.631-4.68-7.268-14.362-9.366-21.631-4.688-35.135 22.619-75.982 31.848-118.132 26.688-81.563-9.985-146.264-76.762-153.843-158.78-5.122-55.433 15.174-108.847 55.686-146.547 40.514-37.701 95.538-54.064 150.963-44.891 72.242 11.957 131.423 70.644 143.917 142.717 3.758 21.676 3.687 43.318-.209 64.326-4.407 23.768-25.557 41.012-50.296 41.012h-.024c-12.971-.006-23.524-10.563-23.524-23.534V-65.054c0-8.643-7.006-15.65-15.65-15.65-7.189 0-13.23 4.853-15.065 11.457-18.947-19.515-45.443-31.664-74.726-31.664-57.451 0-104.191 46.74-104.191 104.191s46.74 104.191 104.191 104.191c30.842 0 58.592-13.475 77.686-34.841 7.843 20.693 27.859 35.454 51.265 35.465h.039c39.818-.002 73.914-28.007 81.071-66.604 4.575-24.671 4.667-50.033.273-75.381zM-5.207 76.172c-40.192 0-72.891-32.7-72.891-72.892 0-40.192 32.699-72.891 72.891-72.891 40.192 0 72.891 32.699 72.891 72.891 0 40.192-32.699 72.892-72.891 72.892z" class="primary design" style="display:block" transform="translate(250 250)"/>
<path class="primary design" style="display:none"/></g>
<g clip-path="url(#c)" opacity="0" style="display:block">
<g fill="none" class="primary design" style="display:none"><path/><path/></g>
<path class="primary design" style="display:none"/></g><g class="com" style="display:none">
<path/><path/><path/><path/><path/><path/><path/><path/><path/><path/><path/><path/></g></g></svg>