<svg xmlns="http://www.w3.org/2000/svg" width="500" height="500" style="width:20px;height:20px;transform:translate3d(0,0,0);content-visibility:visible" viewBox="0 0 500 500"><defs><clipPath id="a"><path d="M0 0h500v500H0z"/></clipPath><clipPath id="g"><path d="M0 0h500v500H0z"/></clipPath><clipPath id="f"><path d="M0 0h500v500H0z"/></clipPath><clipPath id="e"><path d="M0 0h500v500H0z"/></clipPath><clipPath id="d"><path d="M0 0h500v500H0z"/></clipPath><clipPath id="c"><path d="M0 0h500v500H0z"/></clipPath><clipPath id="b"><path d="M0 0h500v500H0z"/></clipPath></defs><g clip-path="url(#a)"><g clip-path="url(#b)" opacity="0" style="display:block"><path class="primary design" style="display:none"/><path fill="#121330" d="M187.448 61.038v68.745c0 16.666-7.291 32.498-19.79 43.539a58.36 58.36 0 0 1-38.123 14.166c-2.708 0-5.416-.208-7.916-.625C-37.954 164.781-164.82 37.914-186.902-121.659c-2.292-16.666 2.708-33.33 13.541-46.038 11.041-12.499 26.872-19.791 43.538-19.791h68.746c17.707 0 32.914 12.708 36.039 30.207l8.125 45.83c3.75 21.874-5.417 44.164-23.541 57.08L-67.535-31.04C-42.12 8.124-8.372 41.872 31.417 67.287l23.956-27.915c11.874-17.082 34.373-26.248 56.038-22.498l45.831 8.124c17.499 3.125 30.206 18.333 30.206 36.04z" class="primary design" opacity="1" style="display:block" transform="translate(250.313 249.5)"/><path class="primary design" style="display:none"/></g><g clip-path="url(#c)" opacity="0" style="display:block"><path class="primary design" style="display:none"/><path fill="none" class="primary design" style="display:none"/><path fill="none" class="primary design" style="display:none"/><g fill="#121330" class="primary design" opacity="1" style="display:block"><path d="M291.871 102.499c58.644 0 106.363 47.709 106.363 106.353 0 11.505 9.328 20.833 20.833 20.833 11.505 0 20.833-9.328 20.833-20.833 0-81.613-66.406-148.019-148.029-148.019-11.505 0-20.833 9.328-20.833 20.833 0 11.505 9.328 20.833 20.833 20.833z" opacity="1"/><path d="M291.871 174.042c19.195 0 34.81 15.615 34.81 34.81 0 11.505 9.329 20.833 20.834 20.833 11.505 0 20.833-9.328 20.833-20.833 0-42.165-34.312-76.477-76.477-76.477-11.505 0-20.833 9.328-20.833 20.833 0 11.505 9.328 20.834 20.833 20.834z" opacity="1"/></g><path fill="#121330" d="m157.227 25.014-45.675-8.056c-21.79-3.835-44.291 5.381-56.173 22.369L31.392 67.21C-8.24 41.789-42.114 8.169-67.586-31.036l27.181-23.417c18.107-12.828 27.303-35.218 23.437-57.058l-8.056-45.726A36.562 36.562 0 0 0-61.096-187.5h-68.665c-16.663 0-32.511 7.223-43.477 19.806-11.027 12.655-16.012 29.439-13.713 46.081 22.176 159.505 149.068 286.388 308.553 308.554 2.665.376 5.331.559 7.996.559a58.007 58.007 0 0 0 38.086-14.262 57.65 57.65 0 0 0 19.816-43.487V61.096c0-17.812-12.736-32.979-30.273-36.082z" class="primary design" opacity="1" style="display:block" transform="translate(229.169 270.835)"/></g><g clip-path="url(#d)" opacity="0" style="display:block"><path class="primary design" style="display:none"/><path fill="none" class="primary design" style="display:none"/><path fill="none" class="primary design" style="display:none"/><path fill="none" class="primary design" style="display:none"/><path fill="none" class="primary design" style="display:none"/><g fill="#121330" class="primary design" opacity="1" style="display:block"><path d="M291.871 102.499c58.644 0 106.363 47.709 106.363 106.353 0 11.505 9.328 20.833 20.833 20.833 11.505 0 20.833-9.328 20.833-20.833 0-81.613-66.406-148.019-148.029-148.019-11.505 0-20.833 9.328-20.833 20.833 0 11.505 9.328 20.833 20.833 20.833z" opacity="1"/><path d="M291.871 174.042c19.195 0 34.81 15.615 34.81 34.81 0 11.505 9.329 20.833 20.834 20.833 11.505 0 20.833-9.328 20.833-20.833 0-42.165-34.312-76.477-76.477-76.477-11.505 0-20.833 9.328-20.833 20.833 0 11.505 9.328 20.834 20.833 20.834z" opacity="1"/></g><path fill="#121330" d="m157.227 25.014-45.675-8.056c-21.79-3.835-44.291 5.381-56.173 22.369L31.392 67.21C-8.24 41.789-42.114 8.169-67.586-31.036l27.181-23.417c18.107-12.828 27.303-35.218 23.437-57.058l-8.056-45.726A36.562 36.562 0 0 0-61.096-187.5h-68.665c-16.663 0-32.511 7.223-43.477 19.806-11.027 12.655-16.012 29.439-13.713 46.081 22.176 159.505 149.068 286.388 308.553 308.554 2.665.376 5.331.559 7.996.559a58.007 58.007 0 0 0 38.086-14.262 57.65 57.65 0 0 0 19.816-43.487V61.096c0-17.812-12.736-32.979-30.273-36.082z" class="primary design" opacity="1" style="display:block" transform="translate(229.169 270.835)"/><g class="primary design" style="display:none"><path/><path/></g><path class="primary design" style="display:none"/></g><g clip-path="url(#e)" opacity="0" style="display:block"><path class="primary design" style="display:none"/><path fill="none" class="primary design" style="display:none"/><path fill="none" class="primary design" style="display:none"/><g class="primary design" style="display:none"><path/><path/></g><path fill="#121330" d="M187.448 61.038v68.745c0 16.666-7.291 32.498-19.79 43.539a58.36 58.36 0 0 1-38.123 14.166c-2.708 0-5.416-.208-7.916-.625C-37.954 164.781-164.82 37.914-186.902-121.659c-2.292-16.666 2.708-33.33 13.541-46.038 11.041-12.499 26.872-19.791 43.538-19.791h68.746c17.707 0 32.914 12.708 36.039 30.207l8.125 45.83c3.75 21.874-5.417 44.164-23.541 57.08L-67.535-31.04C-42.12 8.124-8.372 41.872 31.417 67.287l23.956-27.915c11.874-17.082 34.373-26.248 56.038-22.498l45.831 8.124c17.499 3.125 30.206 18.333 30.206 36.04z" class="primary design" opacity="1" style="display:block" transform="translate(250.313 249.5)"/><path class="primary design" style="display:none"/></g><g clip-path="url(#f)" style="display:block"><path fill="#121330" d="m157.227 25.024-45.675-8.066c-21.973-3.835-44.332 5.391-56.213 22.369L31.392 67.21C-8.24 41.779-42.114 8.159-67.586-31.036l27.181-23.407c18.107-12.817 27.303-35.218 23.437-57.058l-8.077-45.726c-3.092-17.537-18.249-30.273-36.051-30.273h-68.665c-16.663 0-32.511 7.223-43.477 19.806a58.012 58.012 0 0 0-13.713 46.081C-164.795 37.892-37.903 164.774 121.602 186.94c2.665.376 5.351.56 8.016.56a57.985 57.985 0 0 0 38.066-14.252 57.65 57.65 0 0 0 19.816-43.487V61.106a36.59 36.59 0 0 0-30.273-36.082z" class="primary design" style="display:block" transform="translate(251.004 248.655)"/><path fill="none" class="primary design" style="display:none"/><path fill="none" class="primary design" style="display:none"/><path fill="none" class="primary design" style="display:none"/></g><g clip-path="url(#g)" opacity="0" style="display:block"><g class="primary design" style="display:none"><path/><path fill="none"/></g><path class="primary design" style="display:none"/></g><g class="com" style="display:none"><path/><path/><path/><path/><path/><path/><path/><path/><path/><path/><path/><path/></g></g></svg>